; NON-PLATED HOLES START AT T1
; THROUGH (PLATED) HOLES START AT T100
M48
INCH
T100C0.035000
T101C0.039370
T102C0.038333
T103C0.038000
T104C0.038361
%
T100
X010371Y007699
X010371Y008699
X013371Y009699
X010371Y006699
X013371Y007699
X013371Y004699
X013371Y005699
X013371Y006699
X010371Y005699
X013371Y008699
X010371Y009699
T101
X007372Y009693
X007372Y006693
T102
X004303Y010060
X004303Y003460
X004303Y008060
X004303Y013060
X004303Y001460
X004303Y009060
X004303Y011060
X001879Y014120
X004303Y014060
X004303Y007060
X002871Y015159
X002871Y016199
X004303Y012060
X001879Y015159
X004303Y004460
X002871Y014120
X004303Y002460
X001879Y016199
X004303Y015061
X004303Y006061
T103
X013371Y001699
X014371Y001699
X012371Y001699
X011371Y001699
X010371Y001699
T104
X004303Y000461
T00
M30
