G04 MADE WITH FRITZING*
G04 WWW.FRITZING.ORG*
G04 DOUBLE SIDED*
G04 HOLES PLATED*
G04 CONTOUR ON CENTER OF CONTOUR VECTOR*
%ASAXBY*%
%FSLAX23Y23*%
%MOIN*%
%OFA0B0*%
%SFA1.0B1.0*%
%ADD10C,0.078000*%
%ADD11C,0.066111*%
%ADD12C,0.066139*%
%ADD13C,0.075000*%
%ADD14C,0.062992*%
%ADD15R,0.075000X0.075000*%
%ADD16C,0.024000*%
%ADD17R,0.001000X0.001000*%
%LNCOPPER0*%
G90*
G70*
G54D10*
X1037Y170D03*
X1137Y170D03*
X1237Y170D03*
X1337Y170D03*
X1437Y170D03*
G54D11*
X430Y606D03*
X430Y706D03*
X430Y806D03*
X430Y906D03*
X430Y1006D03*
X430Y1106D03*
X430Y1206D03*
X430Y1306D03*
X430Y1406D03*
X430Y1506D03*
G54D12*
X430Y46D03*
G54D11*
X430Y146D03*
X430Y246D03*
X430Y346D03*
X430Y446D03*
X287Y1516D03*
X188Y1516D03*
X287Y1412D03*
X188Y1412D03*
X287Y1620D03*
X188Y1620D03*
G54D13*
X1037Y970D03*
X1037Y870D03*
X1037Y770D03*
X1037Y670D03*
X1037Y570D03*
X1337Y470D03*
X1337Y570D03*
X1337Y670D03*
X1337Y770D03*
X1337Y870D03*
X1337Y970D03*
X1037Y970D03*
X1037Y870D03*
X1037Y770D03*
X1037Y670D03*
X1037Y570D03*
X1337Y470D03*
X1337Y570D03*
X1337Y670D03*
X1337Y770D03*
X1337Y870D03*
X1337Y970D03*
G54D14*
X737Y969D03*
X737Y669D03*
G54D15*
X1037Y970D03*
X1037Y970D03*
G54D16*
X737Y939D02*
X737Y700D01*
G54D17*
D02*
G04 End of Copper0*
M02*